<svg width="12" height="16" viewBox="0 0 12 16" fill="none" xmlns="http://www.w3.org/2000/svg"><script xmlns=""/>
<path d="M7.98856 0.421061C7.98856 0.252261 7.88596 0.0997817 7.72791 0.0336598C7.56976 -0.0324622 7.38676 0.000556781 7.26291 0.117559L5.73899 1.55719C3.46994 3.70069 1.55266 6.17665 0.0553799 8.89691C0.0201257 8.95813 0 9.02878 0 9.10415C0 9.33665 0.19188 9.5252 0.428571 9.5252H4.12285V15.5789C4.12285 15.7457 4.223 15.8967 4.37824 15.9641C4.53348 16.0315 4.71454 16.0025 4.84002 15.8902L5.52188 15.28C7.90876 13.1438 9.93445 10.6481 11.5227 7.8863L11.9445 7.153C12.0195 7.02264 12.0184 6.86298 11.9415 6.73363C11.8647 6.60428 11.7238 6.52479 11.5714 6.52479H7.98856V0.421061Z" fill="#757575"/>
</svg>